# xmcd CD database file
#
# Track frame offsets:
#	150
#	18028
#	34833
#	51297
#	66051
#	89798
#	111172
#	129520
#	149372
#	165800
#	182794
#	201473
#	217796
#	235873
#	251536
#	266515
#
# Disc length: 3748 seconds
#
# Revision: 1
# Processed by: cddbd v1.5.2PL0 Copyright (c) Steve Scherf et al.
# Submitted via: CDex 1.50
#
DISCID=df0ea210
DTITLE=Various Artist - Emotions
DYEAR=1900
DGENRE=CD English
TTITLE0=Destiny's Child - Emotions
TTITLE1=Tata Young - I Think Of You
TTITLE2=Mandy Moore - Can We Still Be Friends
TTITLE3=Jessica Simpson - Take My Breath Away
TTITLE4=Lara Fabian - Broken Vow
TTITLE5=Sarah Connor - Skin On Skin
TTITLE6=D.J. Sammy - Heaven (Ballad Version)
TTITLE7=Tina Arena - Burn
TTITLE8=Meja - I'm Missing You
TTITLE9=Kathy Troccoli - If I'm Not In Love
TTITLE10=Wilson Phillips - You're In Love
TTITLE11=Beverly Craven - Promise Me
TTITLE12=Cyndi Lauper - Time After Time
TTITLE13=Gloria Estefan - Words Get In The Way
TTITLE14=Robin Beck - First Time
TTITLE15=Janie Frickle - I Loved You All The Way
EXTD=
EXTT0=
EXTT1=
EXTT2=
EXTT3=
EXTT4=
EXTT5=
EXTT6=
EXTT7=
EXTT8=
EXTT9=
EXTT10=
EXTT11=
EXTT12=
EXTT13=
EXTT14=
EXTT15=
PLAYORDER=
